<svg width="24" height="24" viewBox="0 0 24 24" fill="none" xmlns="http://www.w3.org/2000/svg">
<path d="M17.6464 18.3535C17.8417 18.5488 18.1583 18.5488 18.3535 18.3535C18.5488 18.1583 18.5488 17.8417 18.3535 17.6464L17.6464 18.3535ZM6.35355 5.64645C6.15829 5.45118 5.84171 5.45118 5.64645 5.64645C5.45118 5.84171 5.45118 6.15829 5.64645 6.35355L6.35355 5.64645ZM18.3536 6.35355C18.5489 6.15829 18.5489 5.84171 18.3536 5.64645C18.1583 5.45118 17.8417 5.45118 17.6465 5.64645L18.3536 6.35355ZM5.64645 17.6465C5.45118 17.8417 5.45118 18.1583 5.64645 18.3536C5.84171 18.5489 6.15829 18.5489 6.35355 18.3536L5.64645 17.6465ZM18.3535 17.6464L12.3536 11.6465L11.6465 12.3536L17.6464 18.3535L18.3535 17.6464ZM12.3536 11.6465L6.35355 5.64645L5.64645 6.35355L11.6465 12.3536L12.3536 11.6465ZM17.6465 5.64645L11.6465 11.6465L12.3536 12.3536L18.3536 6.35355L17.6465 5.64645ZM11.6465 11.6465L5.64645 17.6465L6.35355 18.3536L12.3536 12.3536L11.6465 11.6465Z" fill="#0F0F0F"/>
</svg>
