<svg width="122" height="122" viewBox="0 0 122 122" fill="none" xmlns="http://www.w3.org/2000/svg">
<path d="M61.0008 0.417969L62.5039 29.2814C63.3539 45.6047 76.3975 58.6483 92.7208 59.4984L121.583 61.0014L92.7208 62.5045C76.3975 63.3545 63.3539 76.3981 62.5039 92.7214L61.0008 121.585L59.4978 92.7214C58.6478 76.3981 45.6042 63.3545 29.2809 62.5045L0.418213 61.0014L29.2809 59.4984C45.6042 58.6483 58.6478 45.6047 59.4978 29.2814L61.0008 0.417969Z" fill="#FAFAFA"/>
<path d="M91.2939 8.53491L78.1641 34.2829C70.7387 48.8443 75.513 66.6623 89.2243 75.5602L113.469 91.2935L87.7213 78.1635C73.1599 70.738 55.3422 75.5122 46.4445 89.2237L30.7113 113.469L43.8411 87.7206C51.2665 73.1591 46.4922 55.3412 32.7809 46.4433L8.53651 30.71L34.284 43.8399C48.8453 51.2655 66.6631 46.4912 75.5608 32.7798L91.2939 8.53491Z" fill="#FAFAFA"/>
<path d="M113.465 30.71L89.2202 46.4433C75.5089 55.3412 70.7346 73.1591 78.16 87.7206L91.2898 113.469L75.5567 89.2236C66.659 75.5122 48.8412 70.738 34.2799 78.1635L8.53243 91.2935L32.7769 75.5602C46.4882 66.6623 51.2625 48.8443 43.837 34.2829L30.7072 8.53491L46.4404 32.7798C55.3381 46.4912 73.1559 51.2655 87.7172 43.8399L113.465 30.71Z" fill="#FAFAFA"/>
</svg>
