<svg width="42" height="42" viewBox="0 0 42 42" fill="none" xmlns="http://www.w3.org/2000/svg">
<path opacity="0.5" d="M20.9996 0.805389L21.5006 10.4266C21.7839 15.8677 26.1318 20.2155 31.5729 20.4989L41.1938 20.9999L31.5729 21.5009C26.1318 21.7842 21.7839 26.1321 21.5006 31.5732L20.9996 41.1944L20.4986 31.5732C20.2152 26.1321 15.8673 21.7842 10.4263 21.5009L0.805359 20.9999L10.4262 20.4989C15.8673 20.2155 20.2152 15.8676 20.4986 10.4266L20.9996 0.805389Z" fill="#EBAA84"/>
<path opacity="0.5" d="M31.0978 3.51106L26.7212 12.0937C24.2461 16.9475 25.8375 22.8869 30.408 25.8528L38.4894 31.0972L29.907 26.7206C25.0532 24.2454 19.1139 25.8368 16.148 30.4073L10.9036 38.4889L15.2802 29.9063C17.7554 25.0525 16.1639 19.1131 11.5935 16.1472L3.51203 10.9028L12.0945 15.2794C16.9483 17.7546 22.8875 16.1632 25.8534 11.5927L31.0978 3.51106Z" fill="#EBAA84"/>
<path opacity="0.5" d="M38.488 10.9028L30.4066 16.1472C25.8361 19.1131 24.2447 25.0525 26.7198 29.9063L31.0964 38.4889L25.8521 30.4073C22.8862 25.8368 16.9469 24.2454 12.0931 26.7206L3.51065 31.0972L11.5921 25.8528C16.1625 22.8869 17.754 16.9475 15.2788 12.0937L10.9022 3.51106L16.1466 11.5927C19.1125 16.1632 25.0518 17.7546 29.9056 15.2794L38.488 10.9028Z" fill="#EBAA84"/>
</svg>
