<svg width="42" height="42" viewBox="0 0 42 42" fill="none" xmlns="http://www.w3.org/2000/svg">
<path opacity="0.5" d="M20.9996 0.805664L21.5006 10.4268C21.784 15.8679 26.1318 20.2158 31.5729 20.4991L41.1938 21.0002L31.5729 21.5012C26.1319 21.7845 21.784 26.1324 21.5006 31.5735L20.9996 41.1946L20.4986 31.5735C20.2153 26.1324 15.8674 21.7845 10.4263 21.5012L0.80542 21.0002L10.4263 20.4991C15.8674 20.2158 20.2153 15.8679 20.4986 10.4268L20.9996 0.805664Z" fill="#FAFAFA"/>
<path opacity="0.5" d="M31.0978 3.5113L26.7212 12.094C24.2461 16.9478 25.8375 22.8871 30.408 25.8531L38.4894 31.0975L29.907 26.7209C25.0532 24.2457 19.1139 25.8371 16.148 30.4075L10.9036 38.4892L15.2802 29.9065C17.7554 25.0527 16.1639 19.1134 11.5935 16.1474L3.51203 10.903L12.0945 15.2796C16.9483 17.7548 22.8875 16.1634 25.8534 11.5929L31.0978 3.5113Z" fill="#FAFAFA"/>
<path opacity="0.5" d="M38.488 10.903L30.4065 16.1474C25.8361 19.1134 24.2446 25.0527 26.7198 29.9065L31.0964 38.4892L25.852 30.4076C22.8861 25.8371 16.9468 24.2457 12.0931 26.7208L3.51059 31.0975L11.592 25.8531C16.1625 22.8871 17.7539 16.9478 15.2788 12.094L10.9022 3.5113L16.1466 11.5929C19.1125 16.1634 25.0517 17.7548 29.9055 15.2796L38.488 10.903Z" fill="#FAFAFA"/>
</svg>
