<svg width="284" height="284" viewBox="0 0 284 284" fill="none" xmlns="http://www.w3.org/2000/svg">
<path opacity="0.5" d="M142.003 0.638672L145.51 67.9867C147.493 106.074 177.928 136.509 216.016 138.493L283.362 142L216.016 145.507C177.928 147.491 147.493 177.926 145.51 216.013L142.003 283.361L138.496 216.013C136.512 177.926 106.077 147.491 67.9897 145.507L0.643433 142L67.9897 138.493C106.077 136.509 136.512 106.074 138.496 67.9867L142.003 0.638672Z" fill="#FAFAFA"/>
<path opacity="0.5" d="M212.686 19.5811L182.05 79.6597C164.724 113.636 175.864 155.212 207.857 175.973L264.427 212.684L204.35 182.048C170.373 164.722 128.798 175.862 108.037 207.855L71.3264 264.426L101.963 204.348C119.289 170.371 108.149 128.796 76.1555 108.034L19.5852 71.323L79.6626 101.959C113.639 119.286 155.214 108.146 175.975 76.1526L212.686 19.5811Z" fill="#FAFAFA"/>
<path opacity="0.5" d="M264.418 71.323L207.847 108.034C175.854 128.796 164.714 170.371 182.04 204.348L212.676 264.426L175.966 207.855C155.204 175.862 113.629 164.722 79.653 182.048L19.5757 212.684L76.146 175.973C108.139 155.212 119.279 113.636 101.953 79.6597L71.3169 19.5811L108.028 76.1525C128.789 108.146 170.364 119.286 204.34 101.959L264.418 71.323Z" fill="#FAFAFA"/>
</svg>
