<svg width="648" height="324" viewBox="0 0 648 324" fill="none" xmlns="http://www.w3.org/2000/svg">
<path opacity="0.5" d="M324.003 0.884766L332.02 154.823C336.553 241.881 406.119 311.447 493.176 315.98L647.111 323.996L493.176 332.013C406.119 336.546 336.553 406.112 332.02 493.17L324.003 647.108L315.987 493.17C311.454 406.112 241.888 336.546 154.83 332.013L0.896301 323.996L154.83 315.98C241.888 311.447 311.454 241.881 315.987 154.823L324.003 0.884766Z" fill="#FFBE98"/>
<path opacity="0.5" d="M485.564 44.1761L415.538 181.499C375.936 259.16 401.399 354.189 474.526 401.644L603.829 485.555L466.51 415.529C388.849 375.926 293.821 401.389 246.366 474.516L162.456 603.822L232.482 466.5C272.084 388.839 246.621 293.809 173.494 246.354L44.1908 162.443L181.51 232.469C259.171 272.072 354.199 246.61 401.653 173.482L485.564 44.1761Z" fill="#FFBE98"/>
<path opacity="0.5" d="M603.806 162.443L474.502 246.354C401.375 293.809 375.912 388.839 415.514 466.5L485.54 603.822L401.63 474.516C354.175 401.388 259.147 375.926 181.487 415.529L44.1673 485.555L173.471 401.644C246.598 354.189 272.061 259.16 232.459 181.499L162.433 44.176L246.343 173.482C293.798 246.61 388.826 272.072 466.486 232.469L603.806 162.443Z" fill="#FFBE98"/>
</svg>
