<svg width="648" height="324" viewBox="0 0 648 324" fill="none" xmlns="http://www.w3.org/2000/svg">
<path opacity="0.5" d="M324.003 0.885254L332.02 154.824C336.553 241.881 406.119 311.447 493.176 315.981L647.111 323.997L493.176 332.013C406.119 336.547 336.553 406.112 332.02 493.17L324.003 647.108L315.987 493.17C311.454 406.112 241.888 336.547 154.83 332.013L0.896301 323.997L154.83 315.981C241.888 311.447 311.454 241.881 315.987 154.824L324.003 0.885254Z" fill="#FAFAFA"/>
<path opacity="0.5" d="M485.564 44.1765L415.538 181.499C375.936 259.16 401.399 354.189 474.526 401.645L603.829 485.556L466.51 415.529C388.849 375.926 293.821 401.389 246.366 474.517L162.456 603.823L232.482 466.5C272.084 388.839 246.621 293.81 173.494 246.355L44.1908 162.444L181.51 232.47C259.171 272.073 354.199 246.61 401.653 173.483L485.564 44.1765Z" fill="#FAFAFA"/>
<path opacity="0.5" d="M603.806 162.444L474.502 246.355C401.375 293.81 375.912 388.839 415.514 466.5L485.54 603.823L401.63 474.516C354.175 401.389 259.147 375.926 181.487 415.529L44.1673 485.556L173.471 401.645C246.598 354.189 272.061 259.16 232.459 181.499L162.433 44.1765L246.343 173.483C293.798 246.61 388.826 272.073 466.486 232.47L603.806 162.444Z" fill="#FAFAFA"/>
<path d="M274.789 294.912C274.245 294.293 273.77 293.664 273.365 293.024C272.959 292.395 272.645 291.707 272.421 290.96C272.197 290.213 272.085 289.371 272.085 288.432C272.085 287.536 272.255 286.656 272.597 285.792C272.949 284.917 273.439 284.075 274.069 283.264C274.698 282.453 275.434 281.696 276.277 280.992C277.119 280.288 278.031 279.659 279.013 279.104L279.173 279.312C277.999 280.101 276.97 280.96 276.085 281.888C275.21 282.805 274.527 283.819 274.037 284.928C273.557 286.037 273.317 287.264 273.317 288.608C273.317 289.376 273.375 290.117 273.493 290.832C273.621 291.547 273.813 292.224 274.069 292.864C274.335 293.515 274.671 294.128 275.077 294.704L274.789 294.912ZM283.257 292H281.865L283.785 285.136C283.827 285.008 283.859 284.869 283.881 284.72C283.913 284.56 283.907 284.427 283.865 284.32C283.822 284.203 283.715 284.144 283.545 284.144C283.31 284.144 283.102 284.261 282.921 284.496C282.739 284.72 282.537 285.147 282.313 285.776L282.105 286.368H281.801L282.201 285.2C282.435 284.528 282.723 284.085 283.065 283.872C283.417 283.659 283.763 283.552 284.105 283.552C284.425 283.552 284.654 283.621 284.793 283.76C284.942 283.899 285.022 284.08 285.033 284.304C285.054 284.517 285.038 284.757 284.985 285.024C284.942 285.28 284.889 285.536 284.825 285.792L283.257 292ZM283.993 288.672C284.366 287.712 284.729 286.907 285.081 286.256C285.433 285.605 285.779 285.083 286.121 284.688C286.462 284.283 286.809 283.995 287.161 283.824C287.523 283.643 287.897 283.552 288.281 283.552C288.782 283.552 289.123 283.675 289.305 283.92C289.497 284.155 289.582 284.459 289.561 284.832C289.539 285.195 289.465 285.573 289.337 285.968L287.785 290.64C287.689 290.928 287.646 291.168 287.657 291.36C287.678 291.541 287.806 291.632 288.041 291.632C288.243 291.632 288.441 291.52 288.633 291.296C288.835 291.072 289.049 290.64 289.273 290L289.481 289.408H289.785L289.385 290.576C289.235 291.024 289.049 291.365 288.825 291.6C288.611 291.835 288.382 291.995 288.137 292.08C287.902 292.176 287.673 292.224 287.449 292.224C287.193 292.224 286.979 292.181 286.809 292.096C286.649 292.011 286.526 291.899 286.441 291.76C286.323 291.568 286.286 291.317 286.329 291.008C286.371 290.699 286.457 290.357 286.585 289.984L288.105 285.408C288.158 285.259 288.201 285.083 288.233 284.88C288.275 284.667 288.27 284.48 288.217 284.32C288.163 284.149 288.009 284.064 287.753 284.064C287.497 284.064 287.225 284.176 286.937 284.4C286.649 284.624 286.35 284.944 286.041 285.36C285.731 285.765 285.427 286.256 285.129 286.832C284.83 287.397 284.542 288.027 284.265 288.72C283.998 289.403 283.753 290.133 283.529 290.912L283.993 288.672ZM295.45 283.872C295.109 283.872 294.778 284.011 294.458 284.288C294.149 284.555 293.861 284.923 293.594 285.392C293.338 285.851 293.109 286.368 292.906 286.944C292.714 287.52 292.565 288.117 292.458 288.736C292.351 289.355 292.298 289.947 292.298 290.512C292.298 290.992 292.373 291.344 292.522 291.568C292.682 291.792 292.911 291.904 293.21 291.904C293.551 291.904 293.877 291.771 294.186 291.504C294.506 291.227 294.799 290.859 295.066 290.4C295.333 289.931 295.562 289.408 295.754 288.832C295.946 288.256 296.095 287.664 296.202 287.056C296.309 286.437 296.362 285.84 296.362 285.264C296.362 284.773 296.287 284.421 296.138 284.208C295.989 283.984 295.759 283.872 295.45 283.872ZM290.922 289.712C290.922 289.243 290.986 288.731 291.114 288.176C291.242 287.621 291.434 287.072 291.69 286.528C291.946 285.984 292.255 285.488 292.618 285.04C292.991 284.592 293.423 284.235 293.914 283.968C294.405 283.691 294.949 283.552 295.546 283.552C296.207 283.552 296.735 283.76 297.13 284.176C297.535 284.581 297.738 285.211 297.738 286.064C297.738 286.533 297.674 287.045 297.546 287.6C297.418 288.155 297.226 288.704 296.97 289.248C296.714 289.792 296.399 290.288 296.026 290.736C295.663 291.184 295.237 291.547 294.746 291.824C294.255 292.091 293.711 292.224 293.114 292.224C292.453 292.224 291.919 292.016 291.514 291.6C291.119 291.184 290.922 290.555 290.922 289.712ZM304.478 284.064C304.201 284.064 303.886 284.261 303.534 284.656C303.193 285.04 302.841 285.568 302.478 286.24C302.126 286.901 301.79 287.648 301.47 288.48C301.161 289.312 300.9 290.176 300.686 291.072L300.974 289.344C301.433 287.947 301.876 286.827 302.302 285.984C302.729 285.131 303.156 284.512 303.582 284.128C304.02 283.744 304.473 283.552 304.942 283.552C305.444 283.552 305.844 283.739 306.142 284.112C306.452 284.485 306.606 285.051 306.606 285.808C306.606 286.288 306.537 286.816 306.398 287.392C306.27 287.968 306.073 288.539 305.806 289.104C305.55 289.669 305.23 290.192 304.846 290.672C304.473 291.141 304.041 291.52 303.55 291.808C303.06 292.085 302.516 292.224 301.918 292.224C301.598 292.224 301.31 292.128 301.054 291.936C300.809 291.744 300.644 291.467 300.558 291.104L300.686 290.784C300.836 291.179 301.006 291.456 301.198 291.616C301.401 291.776 301.636 291.856 301.902 291.856C302.265 291.856 302.612 291.717 302.942 291.44C303.273 291.152 303.577 290.773 303.854 290.304C304.132 289.835 304.372 289.317 304.574 288.752C304.788 288.176 304.948 287.605 305.054 287.04C305.172 286.464 305.23 285.936 305.23 285.456C305.23 284.987 305.161 284.64 305.022 284.416C304.894 284.181 304.713 284.064 304.478 284.064ZM302.078 281.328C302.334 281.317 302.585 281.296 302.83 281.264C303.086 281.232 303.321 281.179 303.534 281.104L300.014 293.408C299.886 293.856 299.95 294.16 300.206 294.32C300.462 294.48 300.83 294.56 301.31 294.56L301.214 294.896C301.001 294.885 300.697 294.869 300.302 294.848C299.918 294.837 299.508 294.832 299.07 294.832C298.74 294.832 298.404 294.837 298.062 294.848C297.721 294.869 297.465 294.885 297.294 294.896L297.39 294.56C297.774 294.56 298.052 294.485 298.222 294.336C298.393 294.197 298.532 293.941 298.638 293.568L302.078 281.328ZM298.75 286.288C299.166 285.883 299.556 285.483 299.918 285.088C300.281 284.683 300.633 284.203 300.974 283.648C301.316 283.093 301.662 282.395 302.014 281.552L302.062 281.808C301.828 282.533 301.545 283.173 301.214 283.728C300.894 284.272 300.542 284.768 300.158 285.216C299.774 285.653 299.364 286.08 298.926 286.496L298.75 286.288ZM309.147 292H307.755L309.675 285.136C309.707 285.04 309.734 284.917 309.755 284.768C309.787 284.608 309.787 284.464 309.755 284.336C309.723 284.208 309.622 284.144 309.451 284.144C309.216 284.144 309.003 284.267 308.811 284.512C308.619 284.757 308.416 285.179 308.203 285.776L307.995 286.368H307.691L308.091 285.2C308.251 284.752 308.438 284.411 308.651 284.176C308.875 283.941 309.104 283.781 309.339 283.696C309.584 283.6 309.814 283.552 310.027 283.552C310.347 283.552 310.576 283.627 310.715 283.776C310.854 283.915 310.928 284.101 310.939 284.336C310.96 284.56 310.944 284.8 310.891 285.056C310.838 285.312 310.779 285.557 310.715 285.792L309.147 292ZM313.675 285.408C313.75 285.184 313.798 284.971 313.819 284.768C313.851 284.565 313.835 284.4 313.771 284.272C313.718 284.133 313.59 284.064 313.387 284.064C313.088 284.064 312.758 284.251 312.395 284.624C312.043 284.987 311.68 285.499 311.307 286.16C310.944 286.811 310.592 287.573 310.251 288.448C309.91 289.312 309.606 290.24 309.339 291.232L309.867 288.672C310.358 287.392 310.816 286.379 311.243 285.632C311.67 284.885 312.096 284.352 312.523 284.032C312.96 283.712 313.424 283.552 313.915 283.552C314.256 283.552 314.502 283.632 314.651 283.792C314.811 283.941 314.907 284.139 314.939 284.384C314.971 284.629 314.96 284.891 314.907 285.168C314.864 285.445 314.811 285.712 314.747 285.968L313.115 292H311.675L313.675 285.408ZM317.675 285.408C317.782 285.077 317.835 284.773 317.835 284.496C317.835 284.208 317.718 284.064 317.483 284.064C317.163 284.064 316.827 284.251 316.475 284.624C316.123 284.997 315.76 285.531 315.387 286.224C315.014 286.907 314.64 287.712 314.267 288.64C313.904 289.557 313.552 290.571 313.211 291.68L313.579 289.632C313.995 288.523 314.379 287.584 314.731 286.816C315.083 286.037 315.43 285.408 315.771 284.928C316.112 284.448 316.464 284.101 316.827 283.888C317.19 283.664 317.584 283.552 318.011 283.552C318.459 283.552 318.763 283.68 318.923 283.936C319.083 284.192 319.147 284.507 319.115 284.88C319.094 285.243 319.024 285.605 318.907 285.968L317.355 290.64C317.248 290.971 317.211 291.221 317.243 291.392C317.275 291.552 317.398 291.632 317.611 291.632C317.814 291.632 318.011 291.52 318.203 291.296C318.406 291.072 318.619 290.64 318.843 290L319.051 289.408H319.355L318.955 290.576C318.806 291.024 318.619 291.365 318.395 291.6C318.182 291.835 317.952 291.995 317.707 292.08C317.472 292.176 317.243 292.224 317.019 292.224C316.752 292.224 316.539 292.181 316.379 292.096C316.23 292.021 316.112 291.92 316.027 291.792C315.899 291.589 315.856 291.339 315.899 291.04C315.942 290.731 316.027 290.379 316.155 289.984L317.675 285.408ZM329.7 284.064C329.466 284.064 329.194 284.197 328.884 284.464C328.586 284.731 328.282 285.093 327.972 285.552C327.674 286.011 327.391 286.533 327.124 287.12C326.868 287.707 326.66 288.32 326.5 288.96L326.868 287.232C327.242 286.315 327.604 285.589 327.956 285.056C328.319 284.523 328.682 284.139 329.044 283.904C329.407 283.669 329.78 283.552 330.164 283.552C330.666 283.552 331.066 283.739 331.364 284.112C331.674 284.485 331.828 285.051 331.828 285.808C331.828 286.288 331.759 286.816 331.62 287.392C331.492 287.968 331.295 288.539 331.028 289.104C330.772 289.669 330.452 290.192 330.068 290.672C329.695 291.141 329.263 291.52 328.772 291.808C328.282 292.085 327.738 292.224 327.14 292.224C326.82 292.224 326.532 292.128 326.276 291.936C326.031 291.744 325.866 291.467 325.78 291.104L325.908 290.784C326.058 291.179 326.228 291.456 326.42 291.616C326.623 291.776 326.858 291.856 327.124 291.856C327.487 291.856 327.834 291.717 328.164 291.44C328.495 291.152 328.799 290.773 329.076 290.304C329.354 289.835 329.594 289.317 329.796 288.752C330.01 288.176 330.17 287.605 330.276 287.04C330.394 286.464 330.452 285.936 330.452 285.456C330.452 284.987 330.383 284.64 330.244 284.416C330.116 284.181 329.935 284.064 329.7 284.064ZM322.564 291.712C322.81 291.712 323.082 291.579 323.38 291.312C323.679 291.045 323.978 290.683 324.276 290.224C324.586 289.765 324.868 289.243 325.124 288.656C325.391 288.069 325.604 287.456 325.764 286.816L325.444 288.544C325.071 289.451 324.703 290.176 324.34 290.72C323.978 291.253 323.61 291.637 323.236 291.872C322.874 292.107 322.495 292.224 322.1 292.224C321.77 292.224 321.476 292.144 321.22 291.984C320.975 291.813 320.783 291.563 320.644 291.232C320.506 290.891 320.436 290.469 320.436 289.968C320.436 289.488 320.5 288.96 320.628 288.384C320.767 287.808 320.964 287.237 321.22 286.672C321.487 286.107 321.807 285.589 322.18 285.12C322.564 284.64 323.002 284.261 323.492 283.984C323.983 283.696 324.527 283.552 325.124 283.552C325.444 283.552 325.727 283.648 325.972 283.84C326.228 284.032 326.399 284.309 326.484 284.672L326.356 284.992C326.218 284.587 326.047 284.309 325.844 284.16C325.652 284 325.418 283.92 325.14 283.92C324.778 283.92 324.431 284.064 324.1 284.352C323.77 284.629 323.466 285.003 323.188 285.472C322.911 285.941 322.666 286.464 322.452 287.04C322.25 287.605 322.09 288.176 321.972 288.752C321.866 289.317 321.812 289.84 321.812 290.32C321.812 290.789 321.876 291.141 322.004 291.376C322.143 291.6 322.33 291.712 322.564 291.712ZM330.148 279.728C329.946 279.728 329.77 279.771 329.62 279.856C329.471 279.941 329.338 280.037 329.22 280.144C329.028 280.325 328.858 280.603 328.708 280.976C328.57 281.339 328.436 281.76 328.308 282.24C328.191 282.72 328.063 283.227 327.924 283.76L324.964 294.784C324.708 294.795 324.458 294.816 324.212 294.848C323.967 294.88 323.738 294.933 323.524 295.008L326.532 283.76C326.756 282.907 326.991 282.203 327.236 281.648C327.492 281.093 327.802 280.64 328.164 280.288C328.41 280.043 328.708 279.851 329.06 279.712C329.423 279.563 329.791 279.488 330.164 279.488C330.655 279.488 331.028 279.6 331.284 279.824C331.551 280.037 331.684 280.304 331.684 280.624C331.684 280.805 331.636 280.981 331.54 281.152C331.444 281.323 331.316 281.461 331.156 281.568C330.996 281.675 330.815 281.728 330.612 281.728C330.41 281.728 330.25 281.68 330.132 281.584C330.015 281.488 329.962 281.355 329.972 281.184C329.972 280.917 330.058 280.693 330.228 280.512C330.399 280.32 330.618 280.187 330.884 280.112C330.884 280.016 330.815 279.931 330.676 279.856C330.538 279.771 330.362 279.728 330.148 279.728ZM337.294 283.872C336.952 283.872 336.622 284.011 336.302 284.288C335.992 284.555 335.704 284.923 335.438 285.392C335.182 285.851 334.952 286.368 334.75 286.944C334.558 287.52 334.408 288.117 334.302 288.736C334.195 289.355 334.142 289.947 334.142 290.512C334.142 290.992 334.216 291.344 334.366 291.568C334.526 291.792 334.755 291.904 335.054 291.904C335.395 291.904 335.72 291.771 336.03 291.504C336.35 291.227 336.643 290.859 336.91 290.4C337.176 289.931 337.406 289.408 337.598 288.832C337.79 288.256 337.939 287.664 338.046 287.056C338.152 286.437 338.206 285.84 338.206 285.264C338.206 284.773 338.131 284.421 337.982 284.208C337.832 283.984 337.603 283.872 337.294 283.872ZM332.766 289.712C332.766 289.243 332.83 288.731 332.958 288.176C333.086 287.621 333.278 287.072 333.534 286.528C333.79 285.984 334.099 285.488 334.462 285.04C334.835 284.592 335.267 284.235 335.758 283.968C336.248 283.691 336.792 283.552 337.39 283.552C338.051 283.552 338.579 283.76 338.974 284.176C339.379 284.581 339.582 285.211 339.582 286.064C339.582 286.533 339.518 287.045 339.39 287.6C339.262 288.155 339.07 288.704 338.814 289.248C338.558 289.792 338.243 290.288 337.87 290.736C337.507 291.184 337.08 291.547 336.59 291.824C336.099 292.091 335.555 292.224 334.958 292.224C334.296 292.224 333.763 292.016 333.358 291.6C332.963 291.184 332.766 290.555 332.766 289.712ZM346.05 290.624C346.029 290.72 345.997 290.848 345.954 291.008C345.922 291.157 345.922 291.296 345.954 291.424C345.997 291.552 346.109 291.616 346.29 291.616C346.504 291.616 346.712 291.499 346.914 291.264C347.117 291.029 347.32 290.603 347.522 289.984L347.714 289.392H348.018L347.618 290.56C347.384 291.2 347.096 291.637 346.754 291.872C346.413 292.107 346.088 292.224 345.778 292.224C345.576 292.224 345.4 292.187 345.25 292.112C345.101 292.037 344.984 291.936 344.898 291.808C344.76 291.563 344.722 291.28 344.786 290.96C344.85 290.629 344.925 290.299 345.01 289.968L346.578 283.776C346.834 283.765 347.09 283.744 347.346 283.712C347.602 283.68 347.837 283.627 348.05 283.552L346.05 290.624ZM340.242 291.984C340.562 291.92 340.845 291.765 341.09 291.52C341.346 291.264 341.565 290.955 341.746 290.592C341.938 290.219 342.104 289.829 342.242 289.424C342.392 289.008 342.52 288.603 342.626 288.208C342.733 287.803 342.824 287.451 342.898 287.152C343.101 286.395 343.309 285.749 343.522 285.216C343.736 284.672 343.981 284.261 344.258 283.984C344.536 283.696 344.866 283.552 345.25 283.552C345.688 283.552 345.997 283.744 346.178 284.128C346.36 284.512 346.392 285.019 346.274 285.648L346.098 285.744C346.173 285.179 346.136 284.725 345.986 284.384C345.837 284.032 345.581 283.856 345.218 283.856C344.909 283.856 344.642 283.979 344.418 284.224C344.205 284.469 344.018 284.784 343.858 285.168C343.698 285.552 343.554 285.968 343.426 286.416C343.309 286.853 343.197 287.264 343.09 287.648C342.92 288.288 342.738 288.901 342.546 289.488C342.354 290.064 342.125 290.576 341.858 291.024C341.602 291.461 341.282 291.787 340.898 292C340.728 292.096 340.562 292.155 340.402 292.176C340.242 292.208 340.109 292.224 340.002 292.224C339.736 292.224 339.538 292.165 339.41 292.048C339.272 291.941 339.202 291.792 339.202 291.6C339.202 291.355 339.293 291.131 339.474 290.928C339.656 290.725 339.88 290.624 340.146 290.624C340.328 290.624 340.461 290.672 340.546 290.768C340.632 290.853 340.674 290.971 340.674 291.12C340.674 291.269 340.632 291.424 340.546 291.584C340.461 291.733 340.354 291.867 340.226 291.984C340.226 291.984 340.232 291.984 340.242 291.984ZM355.157 286.464C354.773 287.531 354.405 288.432 354.053 289.168C353.701 289.904 353.349 290.496 352.997 290.944C352.655 291.392 352.303 291.717 351.941 291.92C351.589 292.123 351.221 292.224 350.837 292.224C350.367 292.224 350.026 292.117 349.813 291.904C349.599 291.691 349.493 291.403 349.493 291.04C349.493 290.677 349.567 290.267 349.717 289.808L351.269 285.136C351.375 284.816 351.413 284.571 351.381 284.4C351.349 284.229 351.226 284.144 351.013 284.144C350.81 284.144 350.607 284.256 350.405 284.48C350.213 284.704 350.005 285.136 349.781 285.776L349.573 286.368H349.269L349.669 285.2C349.829 284.752 350.015 284.411 350.229 284.176C350.453 283.941 350.682 283.781 350.917 283.696C351.162 283.6 351.391 283.552 351.605 283.552C352.074 283.552 352.383 283.664 352.533 283.888C352.693 284.101 352.751 284.379 352.709 284.72C352.677 285.061 352.597 285.419 352.469 285.792L350.949 290.368C350.65 291.264 350.767 291.712 351.301 291.712C351.557 291.712 351.829 291.6 352.117 291.376C352.405 291.141 352.698 290.811 352.997 290.384C353.295 289.947 353.589 289.429 353.877 288.832C354.175 288.224 354.458 287.552 354.725 286.816C355.002 286.069 355.253 285.269 355.477 284.416L355.157 286.464ZM355.109 290.64C355.034 290.928 354.997 291.168 354.997 291.36C355.007 291.541 355.119 291.632 355.333 291.632C355.567 291.632 355.781 291.509 355.973 291.264C356.175 291.008 356.378 290.587 356.581 290L356.789 289.408H357.093L356.693 290.576C356.543 291.024 356.357 291.365 356.133 291.6C355.919 291.835 355.69 291.995 355.445 292.08C355.21 292.176 354.981 292.224 354.757 292.224C354.586 292.224 354.426 292.187 354.277 292.112C354.127 292.037 354.015 291.931 353.941 291.792C353.855 291.611 353.823 291.381 353.845 291.104C353.877 290.827 353.951 290.453 354.069 289.984L355.637 283.776C355.903 283.765 356.159 283.744 356.405 283.712C356.661 283.68 356.89 283.627 357.093 283.552L355.109 290.64ZM362.747 283.872C362.405 283.872 362.075 284.011 361.755 284.288C361.445 284.555 361.157 284.923 360.891 285.392C360.635 285.851 360.405 286.368 360.203 286.944C360.011 287.52 359.861 288.117 359.755 288.736C359.648 289.355 359.595 289.947 359.595 290.512C359.595 290.992 359.669 291.344 359.819 291.568C359.979 291.792 360.208 291.904 360.507 291.904C360.848 291.904 361.173 291.771 361.483 291.504C361.803 291.227 362.096 290.859 362.363 290.4C362.629 289.931 362.859 289.408 363.051 288.832C363.243 288.256 363.392 287.664 363.499 287.056C363.605 286.437 363.659 285.84 363.659 285.264C363.659 284.773 363.584 284.421 363.435 284.208C363.285 283.984 363.056 283.872 362.747 283.872ZM358.219 289.712C358.219 289.243 358.283 288.731 358.411 288.176C358.539 287.621 358.731 287.072 358.987 286.528C359.243 285.984 359.552 285.488 359.915 285.04C360.288 284.592 360.72 284.235 361.211 283.968C361.701 283.691 362.245 283.552 362.843 283.552C363.504 283.552 364.032 283.76 364.427 284.176C364.832 284.581 365.035 285.211 365.035 286.064C365.035 286.533 364.971 287.045 364.843 287.6C364.715 288.155 364.523 288.704 364.267 289.248C364.011 289.792 363.696 290.288 363.323 290.736C362.96 291.184 362.533 291.547 362.043 291.824C361.552 292.091 361.008 292.224 360.411 292.224C359.749 292.224 359.216 292.016 358.811 291.6C358.416 291.184 358.219 290.555 358.219 289.712ZM372.35 279.104C372.894 279.712 373.369 280.336 373.774 280.976C374.18 281.616 374.494 282.309 374.718 283.056C374.942 283.803 375.054 284.645 375.054 285.584C375.054 286.48 374.878 287.365 374.526 288.24C374.185 289.104 373.7 289.941 373.07 290.752C372.441 291.563 371.705 292.32 370.862 293.024C370.02 293.728 369.108 294.357 368.126 294.912L367.966 294.704C369.14 293.915 370.164 293.056 371.038 292.128C371.924 291.211 372.606 290.197 373.086 289.088C373.577 287.979 373.822 286.752 373.822 285.408C373.822 284.64 373.758 283.899 373.63 283.184C373.513 282.469 373.321 281.787 373.054 281.136C372.798 280.485 372.468 279.877 372.062 279.312L372.35 279.104Z" fill="#0F0F0F"/>
</svg>
